<svg width="40" height="40" viewBox="0 0 40 40" fill="none" xmlns="http://www.w3.org/2000/svg">
<path fill-rule="evenodd" clip-rule="evenodd" d="M14.2979 26.8926C14.2979 26.2022 14.8575 25.6426 15.5479 25.6426H25.2395C25.9298 25.6426 26.4895 26.2022 26.4895 26.8926C26.4895 27.5829 25.9298 28.1426 25.2395 28.1426H15.5479C14.8575 28.1426 14.2979 27.5829 14.2979 26.8926Z" fill="black"/>
<path fill-rule="evenodd" clip-rule="evenodd" d="M11.7663 9.9634C11.0787 10.6003 10.4613 11.1477 9.91255 11.6314C9.83509 11.6997 9.75924 11.7665 9.68492 11.8319C9.22007 12.2412 8.81525 12.5977 8.45164 12.9334C7.60945 13.7108 7.07747 14.2978 6.70125 14.9543C5.94709 16.2703 5.6665 18.1157 5.6665 22.8557C5.6665 26.2825 5.87162 28.7425 6.3351 30.5262C6.7901 32.277 7.46837 33.2805 8.36687 33.9253C9.30527 34.599 10.6449 35.0002 12.6623 35.2082C14.6776 35.4158 17.1915 35.4173 20.3931 35.4173C23.5948 35.4173 26.1088 35.4158 28.1241 35.2082C30.1415 35.0002 31.4811 34.599 32.4195 33.9253C33.318 33.2805 33.9963 32.277 34.4513 30.5262C34.9148 28.7425 35.1198 26.2825 35.1198 22.8557C35.1198 18.1155 34.8396 16.2701 34.0858 14.9541C33.7098 14.2976 33.178 13.7107 32.336 12.9333C31.9721 12.5973 31.567 12.2405 31.1016 11.8307C31.0278 11.7656 30.9523 11.6992 30.8753 11.6314C30.3266 11.1477 29.7093 10.6003 29.0216 9.96335C28.6146 9.63467 28.193 9.27904 27.756 8.91045C26.8041 8.10755 25.7793 7.24322 24.6738 6.46224C23.0323 5.30262 21.5456 4.58398 20.3465 4.58398C19.1513 4.58398 17.685 5.30267 16.0651 6.46404C15.0079 7.22195 14.0409 8.04565 13.1322 8.8196C12.6628 9.21945 12.2089 9.60604 11.7663 9.9634ZM14.6084 4.43227C16.2756 3.23697 18.3035 2.08398 20.3465 2.08398C22.384 2.08398 24.4283 3.22785 26.1163 4.42032C27.3096 5.2633 28.49 6.25813 29.4783 7.09092C29.8998 7.44614 30.2863 7.77189 30.6238 8.04377C30.6465 8.062 30.6685 8.08102 30.6898 8.10079C31.3665 8.72835 31.9755 9.26849 32.5285 9.75595C32.6035 9.82205 32.6776 9.8874 32.7511 9.95204C33.2143 10.3599 33.6446 10.7388 34.032 11.0965C34.9306 11.9263 35.6871 12.7199 36.2551 13.7114C37.3891 15.6912 37.6198 18.2108 37.6198 22.8557C37.6198 26.3347 37.4168 29.054 36.871 31.155C36.3165 33.2885 35.384 34.8748 33.8773 35.9563C32.4105 37.0092 30.5505 37.4713 28.3805 37.695C26.2226 37.9173 23.5821 37.9173 20.4551 37.9173H20.3313C17.2041 37.9173 14.5637 37.9173 12.4059 37.695C10.2359 37.4713 8.37589 37.0092 6.90905 35.9563C5.40235 34.8748 4.4699 33.2885 3.91547 31.155C3.36954 29.054 3.1665 26.3347 3.1665 22.8557C3.1665 18.2107 3.3976 15.6911 4.53219 13.7112C5.10035 12.7198 5.857 11.9262 6.75592 11.0964C7.14289 10.7392 7.57277 10.3607 8.03535 9.95334C8.10925 9.88827 8.18399 9.82247 8.2595 9.75592C8.81254 9.26847 9.4215 8.72834 10.0982 8.10079C10.1196 8.08095 10.1416 8.06189 10.1644 8.0436C10.5179 7.75902 10.9305 7.40822 11.3831 7.02344C12.3397 6.21008 13.4749 5.2449 14.6084 4.43227Z" fill="black"/>
</svg>
