<svg width="40" height="40" viewBox="0 0 40 40" fill="none" xmlns="http://www.w3.org/2000/svg">
<g clip-path="url(#clip0_853_207)">
<path fill-rule="evenodd" clip-rule="evenodd" d="M26.3227 1.66602C27.0127 1.66602 27.5727 2.22602 27.5727 2.91602L27.5734 4.32903C30.0069 4.49588 32.028 5.32943 33.4585 6.76285C35.0202 8.33118 35.8418 10.5862 35.8336 13.2912V28.4962C35.8336 34.0495 32.3068 37.4995 26.6318 37.4995H12.5352C6.86016 37.4995 3.3335 34.0012 3.3335 28.3695V13.2878C3.3335 8.04984 6.47859 4.68758 11.608 4.32961L11.609 2.91602C11.609 2.22602 12.169 1.66602 12.859 1.66602C13.549 1.66602 14.109 2.22602 14.109 2.91602L14.1085 4.29768H25.0718L25.0727 2.91602C25.0727 2.22602 25.6327 1.66602 26.3227 1.66602ZM33.3335 16.506H5.8335V28.3695C5.8335 32.6462 8.2135 34.9995 12.5352 34.9995H26.6318C30.9535 34.9995 33.3336 32.6895 33.3336 28.4962L33.3335 16.506ZM27.0022 26.9932C27.6922 26.9932 28.2522 27.5532 28.2522 28.2432C28.2522 28.9332 27.6922 29.4932 27.0022 29.4932C26.3122 29.4932 25.7455 28.9332 25.7455 28.2432C25.7455 27.5532 26.2972 26.9932 26.9872 26.9932H27.0022ZM19.6063 26.9932C20.2963 26.9932 20.8563 27.5532 20.8563 28.2432C20.8563 28.9332 20.2963 29.4932 19.6063 29.4932C18.9163 29.4932 18.3497 28.9332 18.3497 28.2432C18.3497 27.5532 18.9013 26.9932 19.5913 26.9932H19.6063ZM12.195 26.9932C12.885 26.9932 13.445 27.5532 13.445 28.2432C13.445 28.9332 12.885 29.4932 12.195 29.4932C11.505 29.4932 10.9367 28.9332 10.9367 28.2432C10.9367 27.5532 11.49 26.9932 12.18 26.9932H12.195ZM27.0022 20.5153C27.6922 20.5153 28.2522 21.0753 28.2522 21.7653C28.2522 22.4553 27.6922 23.0153 27.0022 23.0153C26.3122 23.0153 25.7455 22.4553 25.7455 21.7653C25.7455 21.0753 26.2972 20.5153 26.9872 20.5153H27.0022ZM19.6063 20.5153C20.2963 20.5153 20.8563 21.0753 20.8563 21.7653C20.8563 22.4553 20.2963 23.0153 19.6063 23.0153C18.9163 23.0153 18.3497 22.4553 18.3497 21.7653C18.3497 21.0753 18.9013 20.5153 19.5913 20.5153H19.6063ZM12.195 20.5153C12.885 20.5153 13.445 21.0753 13.445 21.7653C13.445 22.4553 12.885 23.0153 12.195 23.0153C11.505 23.0153 10.9367 22.4553 10.9367 21.7653C10.9367 21.0753 11.49 20.5153 12.18 20.5153H12.195ZM25.0718 6.79768H14.1085L14.109 8.40101C14.109 9.09101 13.549 9.65101 12.859 9.65101C12.169 9.65101 11.609 9.09101 11.609 8.40101L11.6081 6.83552C7.87439 7.14917 5.8335 9.41244 5.8335 13.2878V14.006H33.3335L33.3336 13.2878C33.3402 11.2295 32.7868 9.62952 31.6885 8.52952C30.7244 7.56253 29.3149 6.98502 27.5741 6.83632L27.5727 8.40101C27.5727 9.09101 27.0127 9.65101 26.3227 9.65101C25.6327 9.65101 25.0727 9.09101 25.0727 8.40101L25.0718 6.79768Z" fill="black"/>
<rect x="20" y="20" width="27" height="27" rx="13.5" fill="white"/>
<path d="M31.6875 23.375C36.271 23.375 40 27.104 40 31.6875C40 36.271 36.271 40 31.6875 40C27.104 40 23.375 36.271 23.375 31.6875C23.375 27.104 27.104 23.375 31.6875 23.375ZM31.6875 24.6221C27.7914 24.6221 24.6221 27.7914 24.6221 31.6875C24.6221 35.5836 27.7914 38.7529 31.6875 38.7529C35.5836 38.7529 38.7529 35.5836 38.7529 31.6875C38.7529 27.7914 35.5836 24.6221 31.6875 24.6221ZM31.4062 27.6104C31.751 27.6106 32.0293 27.8904 32.0293 28.2344V31.9102L34.8594 33.5977C35.1543 33.7746 35.252 34.1563 35.0762 34.4521C34.959 34.6474 34.7519 34.7567 34.54 34.7568C34.4313 34.7568 34.3212 34.7288 34.2207 34.6699L31.0869 32.7998C30.8991 32.6868 30.7822 32.4831 30.7822 32.2637V28.2344C30.7822 27.8902 31.0621 27.6104 31.4062 27.6104Z" fill="black"/>
<path d="M31.6875 23.375C36.271 23.375 40 27.104 40 31.6875C40 36.271 36.271 40 31.6875 40C27.104 40 23.375 36.271 23.375 31.6875C23.375 27.104 27.104 23.375 31.6875 23.375ZM31.6875 24.6221C27.7914 24.6221 24.6221 27.7914 24.6221 31.6875C24.6221 35.5836 27.7914 38.7529 31.6875 38.7529C35.5836 38.7529 38.7529 35.5836 38.7529 31.6875C38.7529 27.7914 35.5836 24.6221 31.6875 24.6221ZM31.4062 27.6104C31.751 27.6106 32.0293 27.8904 32.0293 28.2344V31.9102L34.8594 33.5977C35.1543 33.7746 35.252 34.1563 35.0762 34.4521C34.959 34.6474 34.7519 34.7567 34.54 34.7568C34.4313 34.7568 34.3212 34.7288 34.2207 34.6699L31.0869 32.7998C30.8991 32.6868 30.7822 32.4831 30.7822 32.2637V28.2344C30.7822 27.8902 31.0621 27.6104 31.4062 27.6104Z" stroke="black"/>
</g>
<defs>
<clipPath id="clip0_853_207">
<rect width="40" height="40" fill="white"/>
</clipPath>
</defs>
</svg>
